<mxfile host="app.diagrams.net" modified="2022-09-19T16:54:04.110Z" agent="5.0 (Windows NT 10.0; Win64; x64) AppleWebKit/537.36 (KHTML, like Gecko) Chrome/105.0.0.0 Safari/537.36" etag="hcw3H2Sk7lzl_sciNkqU" version="20.3.2" type="github">
  <diagram id="LKEenp2rkKKXYcsgk1IQ" name="Página-1">
    <mxGraphModel dx="1653" dy="895" grid="1" gridSize="10" guides="1" tooltips="1" connect="1" arrows="1" fold="1" page="1" pageScale="1" pageWidth="827" pageHeight="1169" math="0" shadow="0">
      <root>
        <mxCell id="0" />
        <mxCell id="1" parent="0" />
        <mxCell id="essxAi90VnEo2RI6qhOE-1" value="" style="swimlane;startSize=0;" vertex="1" parent="1">
          <mxGeometry x="220" y="160" width="370" height="440" as="geometry" />
        </mxCell>
        <mxCell id="essxAi90VnEo2RI6qhOE-7" value="Realizar cobro" style="ellipse;whiteSpace=wrap;html=1;" vertex="1" parent="essxAi90VnEo2RI6qhOE-1">
          <mxGeometry x="70" y="290" width="120" height="80" as="geometry" />
        </mxCell>
        <mxCell id="essxAi90VnEo2RI6qhOE-9" value="Registrar cobros" style="ellipse;whiteSpace=wrap;html=1;" vertex="1" parent="essxAi90VnEo2RI6qhOE-1">
          <mxGeometry x="74" y="10" width="120" height="80" as="geometry" />
        </mxCell>
        <mxCell id="essxAi90VnEo2RI6qhOE-11" value="Ver estadísticas" style="ellipse;whiteSpace=wrap;html=1;" vertex="1" parent="essxAi90VnEo2RI6qhOE-1">
          <mxGeometry x="70" y="100" width="120" height="80" as="geometry" />
        </mxCell>
        <mxCell id="essxAi90VnEo2RI6qhOE-13" value="Recuperar datos" style="ellipse;whiteSpace=wrap;html=1;" vertex="1" parent="essxAi90VnEo2RI6qhOE-1">
          <mxGeometry x="240" y="80" width="120" height="80" as="geometry" />
        </mxCell>
        <mxCell id="essxAi90VnEo2RI6qhOE-21" value="" style="endArrow=classic;html=1;rounded=0;" edge="1" parent="essxAi90VnEo2RI6qhOE-1" source="essxAi90VnEo2RI6qhOE-7" target="essxAi90VnEo2RI6qhOE-13">
          <mxGeometry relative="1" as="geometry">
            <mxPoint x="160" y="170" as="sourcePoint" />
            <mxPoint x="260" y="170" as="targetPoint" />
          </mxGeometry>
        </mxCell>
        <mxCell id="essxAi90VnEo2RI6qhOE-22" value="&amp;lt;uses&amp;gt;" style="edgeLabel;resizable=0;html=1;align=center;verticalAlign=middle;" connectable="0" vertex="1" parent="essxAi90VnEo2RI6qhOE-21">
          <mxGeometry relative="1" as="geometry" />
        </mxCell>
        <mxCell id="essxAi90VnEo2RI6qhOE-23" value="" style="endArrow=classic;html=1;rounded=0;" edge="1" parent="essxAi90VnEo2RI6qhOE-1" source="essxAi90VnEo2RI6qhOE-9" target="essxAi90VnEo2RI6qhOE-13">
          <mxGeometry relative="1" as="geometry">
            <mxPoint x="388.48888096756264" y="464.79656796264135" as="sourcePoint" />
            <mxPoint x="501.5040439326185" y="325.2008869067656" as="targetPoint" />
          </mxGeometry>
        </mxCell>
        <mxCell id="essxAi90VnEo2RI6qhOE-24" value="&amp;lt;uses&amp;gt;" style="edgeLabel;resizable=0;html=1;align=center;verticalAlign=middle;" connectable="0" vertex="1" parent="essxAi90VnEo2RI6qhOE-23">
          <mxGeometry relative="1" as="geometry" />
        </mxCell>
        <mxCell id="essxAi90VnEo2RI6qhOE-2" value="Empleado" style="shape=umlActor;verticalLabelPosition=bottom;verticalAlign=top;html=1;outlineConnect=0;" vertex="1" parent="1">
          <mxGeometry x="70" y="445" width="80" height="140" as="geometry" />
        </mxCell>
        <mxCell id="essxAi90VnEo2RI6qhOE-3" value="Trabajador" style="shape=umlActor;verticalLabelPosition=bottom;verticalAlign=top;html=1;outlineConnect=0;" vertex="1" parent="1">
          <mxGeometry x="-40" y="260" width="80" height="140" as="geometry" />
        </mxCell>
        <mxCell id="essxAi90VnEo2RI6qhOE-4" value="Gerente" style="shape=umlActor;verticalLabelPosition=bottom;verticalAlign=top;html=1;outlineConnect=0;" vertex="1" parent="1">
          <mxGeometry x="70" y="50" width="80" height="140" as="geometry" />
        </mxCell>
        <mxCell id="essxAi90VnEo2RI6qhOE-5" value="" style="endArrow=block;dashed=1;endFill=0;endSize=12;html=1;rounded=0;" edge="1" parent="1" source="essxAi90VnEo2RI6qhOE-2" target="essxAi90VnEo2RI6qhOE-3">
          <mxGeometry width="160" relative="1" as="geometry">
            <mxPoint x="330" y="390" as="sourcePoint" />
            <mxPoint x="490" y="390" as="targetPoint" />
          </mxGeometry>
        </mxCell>
        <mxCell id="essxAi90VnEo2RI6qhOE-6" value="" style="endArrow=block;dashed=1;endFill=0;endSize=12;html=1;rounded=0;" edge="1" parent="1" source="essxAi90VnEo2RI6qhOE-4" target="essxAi90VnEo2RI6qhOE-3">
          <mxGeometry width="160" relative="1" as="geometry">
            <mxPoint x="80" y="457.72727272727275" as="sourcePoint" />
            <mxPoint x="50" y="407.27272727272725" as="targetPoint" />
          </mxGeometry>
        </mxCell>
        <mxCell id="essxAi90VnEo2RI6qhOE-8" value="" style="endArrow=classic;html=1;rounded=0;entryX=0;entryY=0.5;entryDx=0;entryDy=0;" edge="1" parent="1" source="essxAi90VnEo2RI6qhOE-3" target="essxAi90VnEo2RI6qhOE-7">
          <mxGeometry width="50" height="50" relative="1" as="geometry">
            <mxPoint x="390" y="420" as="sourcePoint" />
            <mxPoint x="440" y="370" as="targetPoint" />
          </mxGeometry>
        </mxCell>
        <mxCell id="essxAi90VnEo2RI6qhOE-10" value="" style="endArrow=classic;html=1;rounded=0;" edge="1" parent="1" source="essxAi90VnEo2RI6qhOE-4" target="essxAi90VnEo2RI6qhOE-9">
          <mxGeometry width="50" height="50" relative="1" as="geometry">
            <mxPoint x="50" y="337.2789115646258" as="sourcePoint" />
            <mxPoint x="304" y="320" as="targetPoint" />
          </mxGeometry>
        </mxCell>
        <mxCell id="essxAi90VnEo2RI6qhOE-12" value="" style="endArrow=classic;html=1;rounded=0;" edge="1" parent="1" source="essxAi90VnEo2RI6qhOE-4" target="essxAi90VnEo2RI6qhOE-11">
          <mxGeometry width="50" height="50" relative="1" as="geometry">
            <mxPoint x="160" y="144.7540983606557" as="sourcePoint" />
            <mxPoint x="311.4998966614826" y="200.6352077849731" as="targetPoint" />
          </mxGeometry>
        </mxCell>
        <mxCell id="essxAi90VnEo2RI6qhOE-14" value="Central de cobros" style="shape=umlActor;verticalLabelPosition=bottom;verticalAlign=top;html=1;outlineConnect=0;" vertex="1" parent="1">
          <mxGeometry x="670" y="70" width="80" height="140" as="geometry" />
        </mxCell>
        <mxCell id="essxAi90VnEo2RI6qhOE-15" value="" style="endArrow=none;html=1;rounded=0;" edge="1" parent="1" source="essxAi90VnEo2RI6qhOE-13" target="essxAi90VnEo2RI6qhOE-14">
          <mxGeometry width="50" height="50" relative="1" as="geometry">
            <mxPoint x="390" y="420" as="sourcePoint" />
            <mxPoint x="440" y="370" as="targetPoint" />
          </mxGeometry>
        </mxCell>
      </root>
    </mxGraphModel>
  </diagram>
</mxfile>
